<svg width="36" height="46" viewBox="0 0 36 46" fill="none" xmlns="http://www.w3.org/2000/svg">
<g filter="url(#filter0_d)">
<path d="M6.54039 26L12.6285 21L15 5.5L9.43474 0H0V26H6.54039Z" transform="translate(26 10) scale(-1 1)" fill="url(#paint0_linear)"/>
<path d="M6.54039 26L12.6285 21L15 5.5L9.43474 0H0V26H6.54039Z" transform="translate(26 10) scale(-1 1)" stroke="url(#paint1_linear)" stroke-width="2"/>
</g>
<path d="M0 0H7.5L11 3.5L9.02819 16.1538L3.96631 20H0" transform="translate(26 14) scale(-1 1)" stroke="url(#paint2_linear)" stroke-opacity="0.22"/>
<path d="M0 0H9L13.5 4.5L11.5 18.5L6 23H0" transform="translate(26 11.5) scale(-1 1)" stroke="url(#paint3_linear)" stroke-opacity="0.93"/>
<defs>
<filter id="filter0_d" x="0.93457" y="0" width="35.0657" height="46" filterUnits="userSpaceOnUse" color-interpolation-filters="sRGB">
<feFlood flood-opacity="0" result="BackgroundImageFix"/>
<feColorMatrix in="SourceAlpha" type="matrix" values="0 0 0 0 0 0 0 0 0 0 0 0 0 0 0 0 0 0 255 0"/>
<feOffset/>
<feGaussianBlur stdDeviation="4.5"/>
<feColorMatrix type="matrix" values="0 0 0 0 0.132786 0 0 0 0 0 0 0 0 0 0.473049 0 0 0 1 0"/>
<feBlend mode="normal" in2="BackgroundImageFix" result="effect1_dropShadow"/>
<feBlend mode="normal" in="SourceGraphic" in2="effect1_dropShadow" result="shape"/>
</filter>
<linearGradient id="paint0_linear" x2="1" gradientUnits="userSpaceOnUse" gradientTransform="translate(15) scale(129 26) rotate(90)">
<stop stop-color="#452499"/>
<stop offset="1" stop-color="#080314"/>
</linearGradient>
<linearGradient id="paint1_linear" x2="1" gradientUnits="userSpaceOnUse" gradientTransform="translate(15 362.039) scale(132 698.077) rotate(180)">
<stop offset="0.790055" stop-color="#9797FB"/>
<stop offset="1" stop-color="#9797FB"/>
</linearGradient>
<linearGradient id="paint2_linear" x2="1" gradientUnits="userSpaceOnUse" gradientTransform="translate(11) scale(123 20) rotate(90)">
<stop stop-color="#C8C8FC"/>
<stop offset="0.18232" stop-color="#C8C8FC" stop-opacity="0"/>
</linearGradient>
<linearGradient id="paint3_linear" x2="1" gradientUnits="userSpaceOnUse" gradientTransform="translate(13 0.5) scale(127 24) rotate(90)">
<stop/>
<stop offset="1" stop-opacity="0"/>
</linearGradient>
</defs>
</svg>
