<svg width="42" height="46" viewBox="0 0 42 46" fill="none" xmlns="http://www.w3.org/2000/svg">
<g filter="url(#filter0_d)">
<path d="M0 21L5.95967 26H21.5V0H11.5L0 21Z" transform="translate(31.5 10) scale(-1 1)" fill="url(#paint0_linear)"/>
<path d="M0 21L5.95967 26H21.5V0H11.5L0 21Z" transform="translate(31.5 10) scale(-1 1)" stroke="url(#paint1_linear)" stroke-width="2"/>
</g>
<path d="M12.5 0H5.12723L0 9L3.47181 16.1538L8.5337 20H12.5" transform="translate(22.5 14) scale(-1 1)" stroke="url(#paint2_linear)" stroke-opacity="0.22"/>
<path d="M19.5 0H10.5L8.5 3.5L0 19L5 23H19.5" transform="translate(29.5 11.5) scale(-1 1)" stroke="url(#paint3_linear)" stroke-opacity="0.93"/>
<defs>
<filter id="filter0_d" x="0" y="0" width="41.771" height="46" filterUnits="userSpaceOnUse" color-interpolation-filters="sRGB">
<feFlood flood-opacity="0" result="BackgroundImageFix"/>
<feColorMatrix in="SourceAlpha" type="matrix" values="0 0 0 0 0 0 0 0 0 0 0 0 0 0 0 0 0 0 255 0"/>
<feOffset/>
<feGaussianBlur stdDeviation="4.5"/>
<feColorMatrix type="matrix" values="0 0 0 0 0.132786 0 0 0 0 0 0 0 0 0 0.473049 0 0 0 1 0"/>
<feBlend mode="normal" in2="BackgroundImageFix" result="effect1_dropShadow"/>
<feBlend mode="normal" in="SourceGraphic" in2="effect1_dropShadow" result="shape"/>
</filter>
<linearGradient id="paint0_linear" x2="1" gradientUnits="userSpaceOnUse" gradientTransform="translate(21.5) scale(184.9 26) rotate(90)">
<stop stop-color="#452499"/>
<stop offset="1" stop-color="#080314"/>
</linearGradient>
<linearGradient id="paint1_linear" x2="1" gradientUnits="userSpaceOnUse" gradientTransform="translate(21.5 362.039) scale(189.2 698.077) rotate(180)">
<stop offset="0.790055" stop-color="#9797FB"/>
<stop offset="1" stop-color="#9797FB"/>
</linearGradient>
<linearGradient id="paint2_linear" x2="1" gradientUnits="userSpaceOnUse" gradientTransform="translate(124.5) scale(123 20) rotate(90)">
<stop stop-color="#C8C8FC"/>
<stop offset="0.18232" stop-color="#C8C8FC" stop-opacity="0"/>
</linearGradient>
<linearGradient id="paint3_linear" x2="1" gradientUnits="userSpaceOnUse" gradientTransform="translate(133.5 0.5) scale(127 24) rotate(90)">
<stop/>
<stop offset="1" stop-opacity="0"/>
</linearGradient>
</defs>
</svg>
