<svg width="11" height="11" viewBox="0 0 11 11" fill="none" xmlns="http://www.w3.org/2000/svg">
  <g opacity="0.7">
    <path d="M0.261867 0.908254L0.90861 0.670854C0.823977 0.440819 0.724076 0.216705 0.60953 0L0 0.321817C0.100181 0.51128 0.187657 0.707183 0.261867 0.908254Z" transform="translate(9.75391 8.06543) scale(1 -1)" fill="white"/>
    <path d="M0.968219 0.567831C0.825807 0.368547 0.67041 0.178847 0.503061 0L0 0.470666C0.146568 0.627353 0.282627 0.793581 0.407272 0.968207L0.968219 0.567831Z" transform="translate(9.00977 9.25806) scale(1 -1)" fill="white"/>
    <path d="M10.8694 4.30867V4.31039L10.1964 4.45959C10.7755 7.06117 9.13594 9.63962 6.53433 10.2187C3.93271 10.7978 1.35423 9.15821 0.775146 6.55661C0.196045 3.95503 1.83564 1.37659 4.43726 0.797501C5.88207 0.475899 7.39457 0.835122 8.54047 1.77202L8.97703 1.23864C6.62353 -0.681599 3.15893 -0.330408 1.23867 2.02307C-0.681597 4.37655 -0.330424 7.84108 2.02306 9.76134C4.37655 11.6816 7.84116 11.3304 9.76143 8.97693C10.8258 7.67246 11.2341 5.95232 10.8694 4.30867Z" transform="translate(0 11) scale(1 -1)" fill="white"/>
    <path d="M0 4.00583L2.40332 7.47725L4.80664 4.00583L2.40332 0L0 4.00583ZM2.40332 6.26647L1.39203 4.80451L2.40332 5.25554L3.41461 4.80451L2.40332 6.26647ZM2.40332 4.5013L0.905508 3.83562L2.40332 1.33964L3.90113 3.83562L2.40332 4.5013Z" transform="translate(3.08398 9.26282) scale(1 -1)" fill="white"/>
  </g>
</svg>
